{"accessors" : [{"bufferView" : 0, "byteOffset" : 0, "componentType" : 5123, "count" : 40974, "type" : "SCALAR", "max" : [33873], "min" : [0]}, {"bufferView" : 1, "byteOffset" : 0, "componentType" : 5126, "count" : 33874, "type" : "VEC3", "max" : [0.4034741520881653, 0.08015136420726776, 0.3139142394065857], "min" : [-0.4034741520881653, -0.08015136420726776, -0.3139142394065857], "name" : "POSITION"}, {"bufferView" : 1, "byteOffset" : 12, "componentType" : 5126, "count" : 33874, "type" : "VEC3", "max" : [0.9985731244087219, 0.9999963045120239, 0.9717921614646912], "min" : [-0.997830867767334, -0.9699701070785522, -0.9929794669151306], "name" : "NORMAL"}, {"bufferView" : 1, "byteOffset" : 24, "componentType" : 5126, "count" : 33874, "type" : "VEC2", "max" : [0.9997475743293762, 0.9936943054199219], "min" : [0.00025079803890548646, 0.00015954738773871213], "name" : "TEXCOORD_0"}], "asset" : {"generator" : "Aspose.3D 23.9.0", "version" : "2.0"}, "buffers" : [{"uri" : "data:application/octet-stream;base64,", "byteLength" : 1393124}], "bufferViews" : [{"buffer" : 0, "byteOffset" : 0, "byteLength" : 81948, "target" : 34963}, {"buffer" : 0, "byteOffset" : 81952, "byteLength" : 1311168, "byteStride" : 32, "target" : 34962}], "images" : [{"uri" : "data:image/jpeg;base64,"}], "materials" : [{"pbrMetallicRoughness" : {"baseColorFactor" : [1, 1, 1, 1], "baseColorTexture" : {"index" : 0, "texCoord" : 0}, "metallicFactor" : 0, "roughnessFactor" : 1}, "emissiveFactor" : [0, 0, 0], "alphaMode" : "OPAQUE", "doubleSided" : false}], "meshes" : [{"primitives" : [{"attributes" : {"POSITION" : 1, "NORMAL" : 2, "TEXCOORD_0" : 3}, "indices" : 0, "material" : 0, "mode" : 4}]}], "nodes" : [{"mesh" : 0, "name" : "Node #0"}], "samplers" : [{"magFilter" : 9729, "minFilter" : 9729, "wrapS" : 10497, "wrapT" : 10497}], "scene" : 0, "scenes" : [{"nodes" : [0]}], "textures" : [{"sampler" : 0, "source" : 0, "name" : ""}]}